<svg width="100" height="100" xmlns="http://www.w3.org/2000/svg">

 <g>
  <title>background</title>
  <rect fill="none" id="canvas_background" height="102" width="102" y="-1" x="-1"/>
 </g>
 <g>
  <title>Layer 1</title>
  <g id="svg_8">
   <ellipse stroke="null" ry="38.5" rx="38.5" id="svg_7" cy="55.95312" cx="48.75299" stroke-width="null" fill="#ffffff"/>
   <path stroke="null" id="svg_2" d="m92.50696,24.41832s-1.36554,-4.09662 -4.09758,-6.82769s-6.82769,-4.09758 -6.82769,-4.09758l-8.67996,8.67996c-4.6326,-3.16759 -9.93637,-5.41387 -15.64962,-6.49355l0,-12.32075s-3.86291,-1.93146 -7.72582,-1.93146s-7.72582,1.93146 -7.72582,1.93146l0,12.32075c-19.21605,3.63307 -33.80047,20.53716 -33.80047,40.79426c0,22.8974 18.62889,41.52629 41.52629,41.52629s41.52629,-18.62889 41.52629,-41.52629c0,-8.66354 -2.67024,-16.71192 -7.22557,-23.37544l8.67996,-8.67996zm-42.98067,67.78732c-19.70277,0 -35.73192,-16.02915 -35.73192,-35.73192s16.02915,-35.73192 35.73192,-35.73192s35.73192,16.02915 35.73192,35.73192s-16.02915,35.73192 -35.73192,35.73192z"/>
  </g>
  <g id="svg_9">
   <path id="svg_1" d="m31,38c-1.656,0 -3,1.343 -3,3l0,28c0,1.657 1.344,3 3,3s3,-1.343 3,-3l0,-28c0,-1.657 -1.344,-3 -3,-3z"/>
   <path stroke="null" id="svg_3" d="m43,38c-1.656,0 -3,1.343 -3,3l0,28c0,1.657 1.344,3 3,3s3,-1.343 3,-3l0,-28c0,-1.657 -1.344,-3 -3,-3z"/>
   <path id="svg_4" d="m55,38c-1.656,0 -3,1.343 -3,3l0,28c0,1.657 1.344,3 3,3s3,-1.343 3,-3l0,-28c0,-1.657 -1.344,-3 -3,-3z"/>
   <path id="svg_5" d="m67,38c-1.656,0 -3,1.343 -3,3l0,28c0,1.657 1.344,3 3,3s3,-1.343 3,-3l0,-28c0,-1.657 -1.344,-3 -3,-3z"/>
   <path stroke="null" transform="rotate(75 49.16169738769531,55.06885528564453) " id="svg_6" d="m49.1617,26.22243c-1.656,0 -3,2.27887 -3,5.09055l0,47.51176c0,2.81168 1.344,5.09055 3,5.09055s3,-2.27887 3,-5.09055l0,-47.51176c0,-2.81168 -1.344,-5.09055 -3,-5.09055z"/>
  </g>
 </g>
</svg>