<svg width="192" height="192" xmlns="http://www.w3.org/2000/svg">

 <g>
  <title>background</title>
  <rect fill="none" id="canvas_background" height="194" width="194" y="-1" x="-1"/>
 </g>
 <g>
  <title>Layer 1</title>
  <g stroke="null" id="svg_10">
   <g stroke="null" id="svg_8">
    <ellipse stroke="null" ry="64.01742" rx="64.01742" id="svg_7" cy="94.87388" cx="94.19488" stroke-width="null" fill="#ffffff"/>
    <path stroke="null" id="svg_2" d="m166.94854,42.43812s-2.27061,-6.81181 -6.81342,-11.35302s-11.35302,-6.81342 -11.35302,-6.81342l-14.43295,14.43295c-7.70303,-5.26703 -16.5221,-9.00213 -26.02203,-10.79741l0,-20.48683s-6.4232,-3.2116 -12.84641,-3.2116s-12.84642,3.2116 -12.84642,3.2116l0,20.48683c-31.95225,6.04102 -56.20307,34.14899 -56.20307,67.83229c0,38.07357 30.97592,69.04949 69.04949,69.04949s69.04949,-30.97592 69.04949,-69.04949c0,-14.40565 -4.44004,-27.78841 -12.01461,-38.86844l14.43295,-14.43295zm-71.46783,112.71607c-32.76158,0 -59.41468,-26.6531 -59.41468,-59.41468s26.6531,-59.41468 59.41468,-59.41468s59.41468,26.65311 59.41468,59.41468s-26.65311,59.41468 -59.41468,59.41468z"/>
   </g>
   <g stroke="null" id="svg_9">
    <path stroke="null" id="svg_1" d="m60.18248,63.36162c-3.18191,0 -5.76433,2.5805 -5.76433,5.76433l0,53.80038c0,3.18383 2.58242,5.76433 5.76433,5.76433s5.76433,-2.5805 5.76433,-5.76433l0,-53.80038c0,-3.18383 -2.58242,-5.76433 -5.76433,-5.76433z"/>
    <path stroke="null" id="svg_3" d="m83.23978,63.36162c-3.18191,0 -5.76433,2.5805 -5.76433,5.76433l0,53.80038c0,3.18383 2.58242,5.76433 5.76433,5.76433s5.76433,-2.5805 5.76433,-5.76433l0,-53.80038c0,-3.18383 -2.58242,-5.76433 -5.76433,-5.76433z"/>
    <path stroke="null" id="svg_4" d="m106.29709,63.36162c-3.18191,0 -5.76433,2.5805 -5.76433,5.76433l0,53.80038c0,3.18383 2.58242,5.76433 5.76433,5.76433s5.76433,-2.5805 5.76433,-5.76433l0,-53.80038c0,-3.18383 -2.58242,-5.76433 -5.76433,-5.76433z"/>
    <path stroke="null" id="svg_5" d="m129.3544,63.36162c-3.18191,0 -5.76433,2.5805 -5.76433,5.76433l0,53.80038c0,3.18383 2.58242,5.76433 5.76433,5.76433s5.76433,-2.5805 5.76433,-5.76433l0,-53.80038c0,-3.18383 -2.58242,-5.76433 -5.76433,-5.76433z"/>
    <path stroke="null" id="svg_6" d="m148.61726,81.81295c-0.82354,-3.07349 -5.72143,-4.43462 -10.93982,-3.03635l-88.18044,23.62788c-5.21839,1.39826 -8.77952,5.02598 -7.95599,8.09947s5.72143,4.43462 10.93982,3.03635l88.18044,-23.62788c5.21839,-1.39826 8.77952,-5.02598 7.95599,-8.09947z"/>
   </g>
  </g>
 </g>
</svg>