<svg width="512" height="512" xmlns="http://www.w3.org/2000/svg">

 <g>
  <title>background</title>
  <rect fill="none" id="canvas_background" height="514" width="514" y="-1" x="-1"/>
 </g>
 <g>
  <title>Layer 1</title>
  <g stroke="null" id="svg_10">
   <g stroke="null" id="svg_8">
    <ellipse stroke="null" ry="169.94903" rx="169.94903" id="svg_7" cy="252.53979" cx="251.37665" stroke-width="null" fill="#ffffff"/>
    <path stroke="null" id="svg_2" d="m444.51806,113.33694s-6.02786,-18.08353 -18.0878,-30.13922s-30.13922,-18.0878 -30.13922,-18.0878l-38.3156,38.31561c-20.44948,-13.98255 -43.86174,-23.89824 -69.0815,-28.66422l0,-54.38703s-17.05187,-8.52594 -34.10376,-8.52594s-34.10379,8.52594 -34.10379,8.52594l0,54.38703c-84.82464,16.03728 -149.20405,90.65638 -149.20405,180.07649c0,101.0751 82.23274,183.30784 183.30784,183.30784s183.30783,-82.23274 183.30783,-183.30784c0,-38.24313 -11.78711,-73.77076 -31.89556,-103.18526l38.31561,-38.3156zm-189.72788,299.23087c-86.97319,0 -157.73001,-70.75682 -157.73001,-157.73001s70.75682,-157.73 157.73001,-157.73s157.73,70.75684 157.73,157.73s-70.75684,157.73001 -157.73,157.73001z"/>
   </g>
   <g stroke="null" id="svg_9">
    <path stroke="null" id="svg_1" d="m161.08286,168.88321c-8.44711,0 -15.30274,6.85053 -15.30274,15.30274l0,142.82554c0,8.45221 6.85563,15.30274 15.30274,15.30274s15.30274,-6.85053 15.30274,-15.30274l0,-142.82554c0,-8.45221 -6.85563,-15.30274 -15.30274,-15.30274z"/>
    <path stroke="null" id="svg_3" d="m222.29381,168.88321c-8.44711,0 -15.30274,6.85053 -15.30274,15.30274l0,142.82554c0,8.45221 6.85563,15.30274 15.30274,15.30274s15.30274,-6.85053 15.30274,-15.30274l0,-142.82554c0,-8.45221 -6.85563,-15.30274 -15.30274,-15.30274z"/>
    <path stroke="null" id="svg_4" d="m283.50476,168.88321c-8.44711,0 -15.30274,6.85053 -15.30274,15.30274l0,142.82554c0,8.45221 6.85563,15.30274 15.30274,15.30274s15.30274,-6.85053 15.30274,-15.30274l0,-142.82554c0,-8.45221 -6.85563,-15.30274 -15.30274,-15.30274z"/>
    <path stroke="null" id="svg_5" d="m344.71571,168.88321c-8.44711,0 -15.30274,6.85053 -15.30274,15.30274l0,142.82554c0,8.45221 6.85563,15.30274 15.30274,15.30274s15.30274,-6.85053 15.30274,-15.30274l0,-142.82554c0,-8.45221 -6.85563,-15.30274 -15.30274,-15.30274z"/>
    <path stroke="null" id="svg_6" d="m395.85344,217.86653c-2.18627,-8.15928 -15.18886,-11.77272 -29.04228,-8.0607l-234.09535,62.72566c-13.85343,3.71202 -23.30728,13.34263 -21.12101,21.50192s15.18886,11.77272 29.04228,8.0607l234.09535,-62.72566c13.85343,-3.71202 23.30728,-13.34263 21.12101,-21.50192z"/>
   </g>
  </g>
 </g>
</svg>